<svg width="10" height="19" viewBox="0 0 10 19" fill="none" xmlns="http://www.w3.org/2000/svg">
<path d="M8.27841 0.0112761C8.72755 0.0112761 9.18551 -0.00647552 9.63466 0.020153C9.96051 0.0379047 10.0662 0.2243 9.96051 0.534962C9.89886 0.703606 9.80198 0.87225 9.6963 1.01427C7.70596 3.69483 5.71562 6.37538 3.71648 9.05594C3.58437 9.22459 3.58437 9.33998 3.71648 9.50862C5.71562 12.1892 7.71477 14.8697 9.70511 17.5503C9.83721 17.7278 9.92528 17.9586 9.98693 18.1805C10.0398 18.358 9.92528 18.4912 9.74034 18.5267C9.64346 18.5444 9.55539 18.5622 9.45852 18.5622C8.74517 18.571 8.04062 18.5533 7.32727 18.571C6.93096 18.5799 6.64914 18.429 6.42017 18.1095C4.3946 15.3313 2.36023 12.562 0.325852 9.79265C0.202557 9.62401 7.97726e-07 9.44649 8.13245e-07 9.26897C8.27989e-07 9.10032 0.211364 8.93168 0.334659 8.76303C2.36023 6.00259 4.38579 3.24215 6.40255 0.481704C6.62273 0.171045 6.87812 -0.0242274 7.27443 0.00240111C7.60909 0.0290277 7.94375 0.0112761 8.27841 0.0112761Z" fill="#054E99"/>
</svg>
