<svg viewBox="0 0 295 476" fill="none" xmlns="http://www.w3.org/2000/svg">
<path d="M51.2065 509.669C38.0042 509.669 24.543 510.189 11.3406 509.409C1.76246 508.889 -1.34397 503.429 1.76246 494.329C3.57455 489.389 6.42211 484.449 9.52854 480.289C68.033 401.769 126.537 323.25 185.301 244.73C189.184 239.79 189.184 236.41 185.301 231.47C126.537 152.95 67.7741 74.4305 9.26967 -4.08927C5.38663 -9.28925 2.79794 -16.0492 0.985853 -22.5492C-0.567363 -27.7492 2.79794 -31.6492 8.2342 -32.6892C11.0818 -33.2092 13.6705 -33.7292 16.518 -33.7292C37.4864 -33.9892 58.196 -33.4692 79.1644 -33.9892C90.8135 -34.2492 99.0973 -29.8292 105.828 -20.4692C165.368 60.9105 225.167 142.03 284.966 223.15C288.59 228.09 294.544 233.29 294.544 238.49C294.544 243.43 288.331 248.37 284.707 253.31C225.167 334.17 165.627 415.029 106.346 495.889C99.8739 504.989 92.3667 510.709 80.7176 509.929C70.8806 509.149 61.0435 509.669 51.2065 509.669Z" fill="#F2F2F2" fill-opacity="0.5"/>
</svg>
