<svg viewBox="0 0 483 754" fill="none" xmlns="http://www.w3.org/2000/svg">
<path d="M70.1084 753.541C51.8178 753.541 33.1686 754.262 14.878 753.181C1.60832 752.46 -2.69536 744.893 1.60832 732.28C4.11879 725.433 8.06382 718.586 12.3675 712.82C93.42 603.989 174.472 495.159 255.884 386.328C261.263 379.481 261.263 374.796 255.884 367.949C174.472 259.119 93.0614 150.288 12.0089 41.4572C6.62927 34.2498 3.04287 24.8803 0.532399 15.8711C-1.61944 8.66381 3.04287 3.25831 10.5743 1.81684C14.5193 1.09611 18.1057 0.375374 22.0508 0.375374C51.1005 0.0150076 525.927 0.735741 554.977 0.0150076C571.115 -0.345359 582.592 5.78087 591.917 18.7541C674.404 131.549 757.249 243.983 840.095 356.417C845.116 363.264 853.365 370.472 853.365 377.679C853.365 384.526 844.757 391.373 839.736 398.22C757.249 510.294 774.992 622.368 692.864 734.442C1130.03 747.055 573.267 754.983 557.129 753.902C543.5 752.821 83.7367 753.541 70.1084 753.541Z" fill="#F2F2F2" fill-opacity="0.5"/>
</svg>
