<svg width="436" height="854" viewBox="0 0 436 854" fill="none" xmlns="http://www.w3.org/2000/svg">
<path d="M52.7099 853.481C31.9143 853.481 10.7111 854.297 -10.0845 853.072C-25.1714 852.256 -30.0645 843.685 -25.1714 829.399C-22.3171 821.644 -17.8318 813.889 -12.9388 807.358C79.214 684.094 171.367 560.83 263.927 437.565C270.044 429.81 270.044 424.504 263.927 416.749C171.367 293.484 78.8062 170.22 -13.3465 46.9555C-19.4628 38.7922 -23.5404 28.1801 -26.3947 17.9761C-28.8412 9.81285 -23.5404 3.69044 -14.9775 2.0578C-10.4922 1.24148 -6.41467 0.425158 -1.92936 0.425158C31.0988 0.0169979 63.7193 0.833319 96.7475 0.016998C115.096 -0.391163 128.145 6.54757 138.746 21.2413C232.53 148.996 326.722 276.342 420.913 403.688C426.622 411.443 436 419.606 436 427.769C436 435.524 426.214 443.279 420.505 451.034C326.722 577.972 232.938 704.91 139.562 831.848C129.368 846.134 117.543 855.113 99.194 853.889C83.6993 852.664 68.2046 853.481 52.7099 853.481Z" fill="#F2F2F2" fill-opacity="0.5"/>
</svg>
