<svg width="165" height="292" viewBox="0 0 165 292" fill="none" xmlns="http://www.w3.org/2000/svg">
<path d="M28.4063 305.814C20.9954 305.814 13.4391 306.106 6.02821 305.668C0.651653 305.375 -1.0921 302.304 0.651653 297.185C1.66884 294.406 3.26728 291.628 5.01103 289.288C37.8516 245.12 70.6922 200.953 103.678 156.786C105.858 154.007 105.858 152.106 103.678 149.327C70.6922 105.16 37.7063 60.9921 4.86571 16.8248C2.68603 13.8998 1.2329 10.0973 0.215716 6.44107C-0.656159 3.51608 1.2329 1.32234 4.28446 0.737338C5.8829 0.444839 7.33602 0.15234 8.93446 0.15234C20.7048 0.0060906 32.3298 0.29859 44.1001 0.0060906C50.6391 -0.140159 55.2891 2.34608 59.0672 7.61107C92.4891 53.3872 126.056 99.017 159.623 144.647C161.658 147.426 165 150.351 165 153.276C165 156.054 161.513 158.833 159.478 161.612C126.056 207.095 92.6344 252.579 59.3579 298.063C55.7251 303.181 51.511 306.399 44.9719 305.96C39.4501 305.521 33.9282 305.814 28.4063 305.814Z" fill="#F2F2F2" fill-opacity="0.5"/>
</svg>
